<svg width="57" height="55" viewBox="0 0 57 55" fill="none" xmlns="http://www.w3.org/2000/svg">
<path d="M40.417 53.73C46.271 50.9561 50.982 46.2382 53.7474 40.3802C56.5129 34.5222 57.1615 27.8865 55.5829 21.6038C54.0044 15.3212 50.2962 9.78022 45.0902 5.92509C39.8843 2.06997 33.5027 0.139203 27.0328 0.461768C20.5629 0.784333 14.405 3.34027 9.60828 7.69409C4.81161 12.0479 1.67295 17.9302 0.727098 24.3387C-0.218752 30.7473 1.08673 37.2855 4.4211 42.8394C7.75547 48.3933 12.9124 52.6192 19.0133 54.7971L28.427 28.427L40.417 53.73Z" fill="url(#paint0_linear_1_103)"/>
<defs>
<linearGradient id="paint0_linear_1_103" x1="33.5183" y1="55.9753" x2="30.1892" y2="0.498228" gradientUnits="userSpaceOnUse">
<stop stop-color="#7A87FB"/>
<stop offset="1" stop-color="#FFD49C"/>
</linearGradient>
</defs>
</svg>
