<svg width="20" height="20" viewBox="0 0 20 20" fill="none" xmlns="http://www.w3.org/2000/svg">
<g clip-path="url(#clip0_1_250)">
<path fill-rule="evenodd" clip-rule="evenodd" d="M3.33357 10.0001C3.33369 8.71712 3.704 7.46145 4.40006 6.38373C5.09613 5.30602 6.08838 4.45203 7.25775 3.92426C8.42712 3.39648 9.72394 3.21734 10.9926 3.40831C12.2613 3.59928 13.4479 4.15227 14.4101 5.00091C15.3722 5.84955 16.0691 6.9578 16.4171 8.19267C16.765 9.42755 16.7492 10.7366 16.3717 11.9627C15.9941 13.1889 15.2707 14.28 14.2884 15.1052C13.3061 15.9305 12.1065 16.4547 10.8336 16.6151V11.6667H12.5002C12.7213 11.6667 12.9332 11.5789 13.0895 11.4227C13.2458 11.2664 13.3336 11.0544 13.3336 10.8334C13.3336 10.6124 13.2458 10.4004 13.0895 10.2442C12.9332 10.0879 12.7213 10.0001 12.5002 10.0001H10.8336V8.33341C10.8336 8.1124 10.9214 7.90044 11.0777 7.74416C11.2339 7.58788 11.4459 7.50008 11.6669 7.50008H12.0836C12.3046 7.50008 12.5166 7.41228 12.6728 7.256C12.8291 7.09972 12.9169 6.88776 12.9169 6.66675C12.9169 6.44573 12.8291 6.23377 12.6728 6.07749C12.5166 5.92121 12.3046 5.83341 12.0836 5.83341H11.6669C11.0039 5.83341 10.368 6.09681 9.89914 6.56565C9.4303 7.03449 9.16691 7.67037 9.16691 8.33341V10.0001H7.50024C7.27923 10.0001 7.06727 10.0879 6.91099 10.2442C6.75471 10.4004 6.66691 10.6124 6.66691 10.8334C6.66691 11.0544 6.75471 11.2664 6.91099 11.4227C7.06727 11.5789 7.27923 11.6667 7.50024 11.6667H9.16691V16.6151C7.55582 16.4119 6.07426 15.6278 5.00024 14.4099C3.92623 13.1919 3.3336 11.6239 3.33357 10.0001ZM10.0002 18.3334C14.6027 18.3334 18.3336 14.6026 18.3336 10.0001C18.3336 5.39758 14.6027 1.66675 10.0002 1.66675C5.39774 1.66675 1.66691 5.39758 1.66691 10.0001C1.66691 14.6026 5.39774 18.3334 10.0002 18.3334Z" fill="white"/>
</g>
<defs>
<clipPath id="clip0_1_250">
<rect width="20" height="20" fill="white" transform="translate(0.000244141)"/>
</clipPath>
</defs>
</svg>
