<svg width="20" height="20" viewBox="0 0 20 20" fill="none" xmlns="http://www.w3.org/2000/svg">
<g clip-path="url(#clip0_1_58)">
<path d="M1.66692 10.17C1.66692 8.26299 1.66692 7.30948 2.09958 6.51903C2.53225 5.72859 3.3227 5.23801 4.90361 4.25685L6.57028 3.22247C8.24141 2.18532 9.07697 1.66675 10.0002 1.66675C10.9235 1.66675 11.7591 2.18532 13.4302 3.22247L15.0969 4.25685C16.6778 5.23801 17.4682 5.72859 17.9009 6.51903C18.3336 7.30948 18.3336 8.26299 18.3336 10.17V11.4375C18.3336 14.6883 18.3336 16.3137 17.3573 17.3235C16.381 18.3334 14.8096 18.3334 11.6669 18.3334H8.33358C5.19089 18.3334 3.61954 18.3334 2.64323 17.3235C1.66692 16.3137 1.66692 14.6883 1.66692 11.4375V10.17Z" stroke="white" stroke-width="1.5"/>
<path d="M10.0002 12.5L10.0002 15" stroke="white" stroke-width="1.5" stroke-linecap="round"/>
</g>
<defs>
<clipPath id="clip0_1_58">
<rect width="20" height="20" fill="white" transform="translate(0.000244141)"/>
</clipPath>
</defs>
</svg>
