<svg width="20" height="20" viewBox="0 0 20 20" fill="none" xmlns="http://www.w3.org/2000/svg">
<path d="M10.0011 7.50008C9.33804 7.50008 8.70215 7.76347 8.23331 8.23231C7.76447 8.70115 7.50108 9.33704 7.50108 10.0001C7.50108 10.6631 7.76447 11.299 8.23331 11.7678C8.70215 12.2367 9.33804 12.5001 10.0011 12.5001C10.6641 12.5001 11.3 12.2367 11.7688 11.7678C12.2377 11.299 12.5011 10.6631 12.5011 10.0001C12.5011 9.33704 12.2377 8.70115 11.7688 8.23231C11.3 7.76347 10.6641 7.50008 10.0011 7.50008ZM10.0011 5.83341C11.1061 5.83341 12.166 6.2724 12.9474 7.0538C13.7288 7.8352 14.1677 8.89501 14.1677 10.0001C14.1677 11.1052 13.7288 12.165 12.9474 12.9464C12.166 13.7278 11.1061 14.1667 10.0011 14.1667C8.89601 14.1667 7.8362 13.7278 7.0548 12.9464C6.2734 12.165 5.83441 11.1052 5.83441 10.0001C5.83441 8.89501 6.2734 7.8352 7.0548 7.0538C7.8362 6.2724 8.89601 5.83341 10.0011 5.83341ZM15.4177 5.62508C15.4177 5.90135 15.308 6.1663 15.1126 6.36165C14.9173 6.557 14.6523 6.66675 14.3761 6.66675C14.0998 6.66675 13.8349 6.557 13.6395 6.36165C13.4442 6.1663 13.3344 5.90135 13.3344 5.62508C13.3344 5.34881 13.4442 5.08386 13.6395 4.88851C13.8349 4.69316 14.0998 4.58341 14.3761 4.58341C14.6523 4.58341 14.9173 4.69316 15.1126 4.88851C15.308 5.08386 15.4177 5.34881 15.4177 5.62508ZM10.0011 3.33341C7.93941 3.33341 7.60274 3.33925 6.64358 3.38175C5.99024 3.41258 5.55191 3.50008 5.14524 3.65841C4.80492 3.78336 4.49725 3.98363 4.24524 4.24425C3.98442 4.49625 3.78387 4.8039 3.65858 5.14425C3.50024 5.55258 3.41274 5.99008 3.38274 6.64258C3.33941 7.56258 3.33358 7.88425 3.33358 10.0001C3.33358 12.0626 3.33941 12.3984 3.38191 13.3576C3.41274 14.0101 3.50024 14.4492 3.65774 14.8551C3.79941 15.2176 3.96608 15.4784 4.24274 15.7551C4.52358 16.0351 4.78441 16.2026 5.14274 16.3409C5.55441 16.5001 5.99274 16.5884 6.64274 16.6184C7.56274 16.6617 7.88441 16.6667 10.0002 16.6667C12.0627 16.6667 12.3986 16.6609 13.3577 16.6184C14.0094 16.5876 14.4477 16.5001 14.8552 16.3426C15.1953 16.217 15.5028 16.0168 15.7552 15.7567C16.0361 15.4767 16.2036 15.2159 16.3419 14.8567C16.5002 14.4467 16.5886 14.0084 16.6186 13.3567C16.6619 12.4376 16.6669 12.1151 16.6669 10.0001C16.6669 7.93841 16.6611 7.60175 16.6186 6.64258C16.5877 5.99091 16.4994 5.55091 16.3419 5.14425C16.2163 4.80426 16.0161 4.49673 15.7561 4.24425C15.5042 3.98329 15.1965 3.78272 14.8561 3.65758C14.4477 3.49925 14.0094 3.41175 13.3577 3.38175C12.4386 3.33841 12.1169 3.33341 10.0002 3.33341M10.0002 1.66675C12.2644 1.66675 12.5469 1.67508 13.4361 1.71675C14.3227 1.75841 14.9277 1.89758 15.4586 2.10425C16.0086 2.31591 16.4719 2.60258 16.9352 3.06508C17.359 3.48166 17.6869 3.98557 17.8961 4.54175C18.1019 5.07258 18.2419 5.67758 18.2836 6.56508C18.3227 7.45341 18.3336 7.73591 18.3336 10.0001C18.3336 12.2642 18.3252 12.5467 18.2836 13.4351C18.2419 14.3226 18.1019 14.9267 17.8961 15.4584C17.6875 16.0149 17.3595 16.5189 16.9352 16.9351C16.5185 17.3587 16.0147 17.6865 15.4586 17.8959C14.9277 18.1017 14.3227 18.2417 13.4361 18.2834C12.5469 18.3226 12.2644 18.3334 10.0002 18.3334C7.73608 18.3334 7.45358 18.3251 6.56441 18.2834C5.67774 18.2417 5.07358 18.1017 4.54191 17.8959C3.98552 17.6871 3.48152 17.3592 3.06524 16.9351C2.64144 16.5186 2.31354 16.0146 2.10441 15.4584C1.89774 14.9276 1.75858 14.3226 1.71691 13.4351C1.67691 12.5467 1.66691 12.2642 1.66691 10.0001C1.66691 7.73591 1.67524 7.45341 1.71691 6.56508C1.75858 5.67758 1.89774 5.07341 2.10441 4.54175C2.31294 3.98523 2.64091 3.48118 3.06524 3.06508C3.48164 2.64111 3.9856 2.31319 4.54191 2.10425C5.07274 1.89758 5.67691 1.75841 6.56441 1.71675C7.45441 1.67758 7.73691 1.66675 10.0011 1.66675" fill="white"/>
</svg>
