<svg width="56" height="57" viewBox="0 0 56 57" fill="none" xmlns="http://www.w3.org/2000/svg">
<path d="M0.614005 36.4944C2.48044 42.6977 6.44003 48.0619 11.8181 51.673C17.1962 55.2841 23.66 56.9187 30.1081 56.2983C36.5563 55.678 42.5899 52.841 47.1808 48.2707C51.7718 43.7005 54.636 37.6798 55.2855 31.2345C55.9351 24.7892 54.3297 18.3181 50.7429 12.9237C47.1561 7.52938 41.8099 3.54559 35.6151 1.65114C29.4204 -0.243316 22.7604 0.0687855 16.77 2.53426C10.7796 4.99973 5.82932 9.46603 2.76273 15.1722L27.4266 28.427L0.614005 36.4944Z" fill="url(#paint0_linear_1_114)"/>
<defs>
<linearGradient id="paint0_linear_1_114" x1="8.16608" y1="48.7705" x2="51.0323" y2="13.3972" gradientUnits="userSpaceOnUse">
<stop stop-color="#7A87FB"/>
<stop offset="1" stop-color="#FFD49C"/>
</linearGradient>
</defs>
</svg>
