<svg width="20" height="20" viewBox="0 0 20 20" fill="none" xmlns="http://www.w3.org/2000/svg">
<g clip-path="url(#clip0_1_237)">
<path d="M18.3336 10.0001C18.335 11.0977 18.1189 12.1847 17.6977 13.1984C17.2765 14.212 16.6587 15.1321 15.8798 15.9055C15.1074 16.6766 14.1905 17.2879 13.1816 17.7045C12.1728 18.1211 11.0917 18.3348 10.0002 18.3334C5.39774 18.3334 1.66691 14.6026 1.66691 10.0001C1.66399 7.86333 2.48477 5.80765 3.95858 4.26051C4.73622 3.43992 5.67312 2.78665 6.71196 2.34066C7.7508 1.89468 8.86972 1.66537 10.0002 1.66676C11.0917 1.66534 12.1728 1.87904 13.1816 2.29564C14.1905 2.71223 15.1074 3.32356 15.8798 4.09467C16.6587 4.8681 17.2765 5.7882 17.6977 6.80182C18.1189 7.81543 18.335 8.90246 18.3336 10.0001Z" stroke="white" stroke-width="2" stroke-linecap="round" stroke-linejoin="round"/>
<path d="M18.3336 9.99998C17.1177 9.99998 13.7636 9.54165 10.7615 10.8596C7.50024 12.2916 5.13899 14.5133 4.10983 15.8946" stroke="white" stroke-width="2" stroke-linecap="round" stroke-linejoin="round"/>
<path d="M6.87524 2.27271C8.17941 3.47646 11.0252 6.54104 12.0836 9.58354C13.1419 12.626 13.5336 16.3669 13.7752 17.4315" stroke="white" stroke-width="2" stroke-linecap="round" stroke-linejoin="round"/>
<path d="M1.73107 8.9583C3.30524 9.0533 7.47232 9.13872 10.139 7.99997C12.8057 6.86122 15.1002 4.76663 15.8873 4.10205M2.2919 13.1721C3.0262 14.9495 4.35053 16.4197 6.0419 17.335" stroke="white" stroke-width="2" stroke-linecap="round" stroke-linejoin="round"/>
<path d="M1.66691 10.0001C1.66399 7.86332 2.48477 5.80765 3.95858 4.2605C4.73622 3.43992 5.67312 2.78665 6.71196 2.34066C7.7508 1.89468 8.86972 1.66537 10.0002 1.66675M13.3336 2.36009C14.2826 2.77531 15.146 3.36352 15.8798 4.09467C16.6587 4.8681 17.2765 5.7882 17.6977 6.80182C18.1189 7.81543 18.335 8.90246 18.3336 10.0001C18.3336 11.0259 18.1482 12.0088 17.8086 12.9168M10.0002 18.3334C11.0917 18.3348 12.1728 18.1211 13.1816 17.7045C14.1905 17.2879 15.1074 16.6766 15.8798 15.9055" stroke="white" stroke-width="2" stroke-linecap="round" stroke-linejoin="round"/>
</g>
<defs>
<clipPath id="clip0_1_237">
<rect width="20" height="20" fill="white" transform="translate(0.000244141)"/>
</clipPath>
</defs>
</svg>
